<svg xmlns="http://www.w3.org/2000/svg" width="500" height="500" viewBox="0 0 500 500"><g transform="translate(-647 -24)"><g transform="translate(647 24)" fill="none" stroke="#000" stroke-width="30"><circle cx="250" cy="250" r="250" stroke="none"/><circle cx="250" cy="250" r="235" fill="none"/></g><path d="M48.133,215.028H3.552V71.465H48.133ZM25.818,51.882A25.941,25.941,0,1,1,51.636,25.819,26.036,26.036,0,0,1,25.818,51.882ZM214.984,215.028H170.5V145.142c0-16.655-.336-38.015-23.178-38.015-23.178,0-26.73,18.1-26.73,36.815v71.085H76.058V71.465h42.757V91.048h.624c5.952-11.28,20.49-23.183,42.181-23.183,45.118,0,53.412,29.711,53.412,68.3v78.861Z" transform="translate(789 165.999)"/></g></svg>