<svg xmlns="http://www.w3.org/2000/svg" width="500" height="500" viewBox="0 0 500 500"><g transform="translate(-115 -556)"><g transform="translate(115 556)" fill="none" stroke="#000" stroke-width="30"><circle cx="250" cy="250" r="250" stroke="none"/><circle cx="250" cy="250" r="235" fill="none"/></g><path d="M251.172,32.6A32.1,32.1,0,0,0,228.587,9.873C208.665,4.5,128.78,4.5,128.78,4.5S48.9,4.5,28.973,9.873A32.1,32.1,0,0,0,6.388,32.6C1.05,52.656,1.05,94.492,1.05,94.492s0,41.836,5.338,61.887a31.621,31.621,0,0,0,22.585,22.369c19.922,5.373,99.807,5.373,99.807,5.373s79.884,0,99.807-5.373a31.621,31.621,0,0,0,22.585-22.369c5.338-20.052,5.338-61.887,5.338-61.887s0-41.836-5.338-61.887ZM102.653,132.475V56.508l66.768,37.985-66.768,37.983Z" transform="translate(236.42 712.19)"/></g></svg>